<svg xmlns="http://www.w3.org/2000/svg" viewBox="0 0 512 512" role="img" aria-labelledby="title desc">
  <title id="title">Love LoFi Cover</title>
  <desc id="desc">Purple and midnight blue abstract cover art with a moon and city silhouette.</desc>
  <defs>
    <linearGradient id="bg" x1="0" y1="0" x2="1" y2="1">
      <stop offset="0%" stop-color="#6d28d9"/>
      <stop offset="100%" stop-color="#0f172a"/>
    </linearGradient>
    <linearGradient id="city" x1="0" y1="0" x2="0" y2="1">
      <stop offset="0%" stop-color="#a78bfa" stop-opacity="0.8"/>
      <stop offset="100%" stop-color="#312e81" stop-opacity="0.95"/>
    </linearGradient>
  </defs>
  <rect width="512" height="512" fill="url(#bg)"/>
  <circle cx="392" cy="116" r="56" fill="#f8fafc" fill-opacity="0.82"/>
  <path d="M0 350L42 324L87 356L126 316L176 347L219 308L270 344L319 301L378 343L430 299L512 350V512H0Z" fill="#0b1120" fill-opacity="0.72"/>
  <path d="M0 387L61 347L107 385L150 344L196 381L238 338L288 377L335 333L390 379L446 333L512 376V512H0Z" fill="url(#city)"/>
  <text x="42" y="430" font-family="Courier New, monospace" font-size="58" fill="#e9d5ff" font-weight="700">LOVE LOFI</text>
  <text x="42" y="468" font-family="Courier New, monospace" font-size="24" fill="#c4b5fd">FOCUS BEATS</text>
</svg>
