<svg xmlns="http://www.w3.org/2000/svg" viewBox="0 0 512 512" role="img" aria-labelledby="title desc">
  <title id="title">Castle Echo Cover</title>
  <desc id="desc">Medieval-themed cover art with parchment tones and a castle silhouette.</desc>
  <defs>
    <linearGradient id="bg" x1="0" y1="0" x2="1" y2="1">
      <stop offset="0%" stop-color="#b45309"/>
      <stop offset="100%" stop-color="#292524"/>
    </linearGradient>
    <linearGradient id="mist" x1="0" y1="0" x2="0" y2="1">
      <stop offset="0%" stop-color="#fef3c7" stop-opacity="0.6"/>
      <stop offset="100%" stop-color="#fef3c7" stop-opacity="0"/>
    </linearGradient>
  </defs>
  <rect width="512" height="512" fill="url(#bg)"/>
  <rect y="286" width="512" height="120" fill="url(#mist)"/>
  <path d="M56 342H456V392H56Z" fill="#1c1917"/>
  <path d="M86 342V240H138V342M196 342V216H250V342M304 342V226H358V342M404 342V252H438V342" fill="#292524"/>
  <path d="M96 240L112 214L128 240M206 216L223 186L240 216M314 226L331 197L348 226M410 252L421 232L432 252" fill="#f59e0b"/>
  <circle cx="392" cy="104" r="44" fill="#fde68a" fill-opacity="0.84"/>
  <text x="32" y="430" font-family="Courier New, monospace" font-size="56" fill="#fef3c7" font-weight="700">CASTLE ECHO</text>
  <text x="32" y="468" font-family="Courier New, monospace" font-size="24" fill="#fcd34d">MEDIEVAL AMBIENT</text>
</svg>
