<?xml version="1.0" encoding="utf-8"?><!-- Uploaded to: SVG Repo, www.svgrepo.com, Generator: SVG Repo Mixer Tools -->
<svg width="800px" height="800px" viewBox="0 0 48 48" xmlns="http://www.w3.org/2000/svg"><defs><style>.a{fill:none;stroke:#51e6a6;stroke-linecap:round;stroke-linejoin:round;}</style></defs><rect class="a" x="19.9" y="8.8" width="8.2" height="15" rx="4.1"/><path class="a" d="M 20.9 10.2 a 25.7 25.7 0 0 1 -6.5 -2.5 c -0.2 -0.1 -0.9 -0.5 -0.9 -0.5 a 5.6 5.6 0 0 0 -5.6 9.7 c 5.4 4.1 10.4 11.4 10.4 18.7 a 5.6 5.6 0 0 0 11.3 0 c 0 -7.3 5 -14.6 10.4 -18.7 A 5.6 5.6 0 0 0 34.5 7.2 s -0.7 0.4 -0.9 0.5 a 25.7 25.7 0 0 1 -6.5 2.5"/>
    <ellipse cx="330" cy="156" rx="0" ry="0" fill="rgb(255, 255, 255)"/></svg>